<?xml version="1.0" standalone="no"?>
<!DOCTYPE svg PUBLIC "-//W3C//DTD SVG 20010904//EN"
 "http://www.w3.org/TR/2001/REC-SVG-20010904/DTD/svg10.dtd">
<svg version="1.0" xmlns="http://www.w3.org/2000/svg"
 width="450.000000pt" height="450.000000pt" viewBox="0 0 450.000000 450.000000"
 preserveAspectRatio="xMidYMid meet">
<metadata>
Created by potrace 1.16, written by Peter Selinger 2001-2019
</metadata>
<g transform="translate(0.000000,450.000000) scale(0.100000,-0.100000)"
fill="#000000" stroke="none">
<path d="M357 2493 c-4 -3 -7 -153 -7 -333 l0 -327 113 -6 c145 -9 719 -9 865
0 l112 6 0 327 c0 290 -2 329 -16 334 -21 8 -1059 8 -1067 -1z m461 -117 c19
-10 66 -14 160 -14 83 0 138 -4 146 -11 25 -21 32 -140 19 -310 -4 -51 -8 -64
-24 -68 -10 -3 -19 -9 -19 -14 0 -5 -26 -8 -57 -7 l-58 1 55 7 c36 5 -10 8
-130 8 -102 1 -202 1 -222 2 l-38 0 0 203 c0 112 3 207 7 210 12 13 134 7 161
-7z"/>
<path d="M3063 2493 c-10 -4 -13 -80 -13 -332 l0 -328 113 -6 c146 -9 733 -9
871 0 l106 6 -2 331 -3 331 -530 2 c-291 1 -536 -1 -542 -4z m527 -151 c19 0
17 2 -10 8 l-35 7 43 2 c27 0 41 -3 37 -9 -3 -5 3 -10 14 -10 13 0 21 7 22 18
0 14 2 14 8 -3 7 -17 20 -21 77 -25 l68 -5 16 -47 c8 -28 21 -48 30 -49 12 -1
11 -2 -2 -6 -23 -6 -30 -91 -8 -105 13 -8 12 -9 -2 -4 -15 4 -18 -4 -20 -67
l-3 -72 -240 0 -240 0 2 169 c1 104 6 173 12 179 6 6 11 18 11 27 0 15 9 15
98 4 53 -7 108 -13 122 -12z"/>
<path d="M450 1770 c-32 -40 -32 -40 -8 -40 13 0 29 5 36 12 9 9 12 9 12 0 0
-7 11 -12 25 -12 14 0 25 4 25 9 0 5 9 11 20 14 11 3 20 1 20 -3 0 -5 -8 -11
-17 -13 -10 -3 -4 -5 14 -6 17 0 34 5 36 12 4 10 6 10 6 0 1 -20 62 -16 78 5
14 16 14 16 9 0 -5 -17 7 -18 154 -18 138 0 159 2 154 15 -4 8 -1 15 5 15 6 0
11 -7 11 -15 0 -19 66 -21 73 -2 4 10 6 10 6 0 1 -7 13 -13 29 -12 15 0 21 3
15 6 -21 8 -15 22 7 16 11 -3 20 -9 20 -14 0 -5 11 -9 25 -9 14 0 25 5 25 12
0 9 3 9 12 0 15 -15 48 -16 48 -1 0 8 4 8 14 -1 8 -6 25 -10 36 -8 21 3 21 4
-7 40 -22 29 -35 37 -60 38 -19 0 -33 -5 -33 -12 0 -9 -3 -9 -12 0 -7 7 -20
12 -30 12 -10 0 -18 -5 -18 -12 0 -9 -3 -9 -12 0 -7 7 -20 12 -30 12 -10 0
-18 -5 -18 -12 0 -9 -3 -9 -12 0 -7 7 -20 12 -30 12 -10 0 -18 -5 -18 -12 0
-9 -3 -9 -12 0 -16 16 -45 15 -51 0 -4 -10 -6 -10 -6 0 -1 6 -12 12 -25 12
-13 0 -27 -6 -29 -12 -4 -10 -6 -10 -6 0 -1 6 -12 12 -25 12 -13 0 -27 -6 -29
-12 -4 -10 -6 -10 -6 0 -1 15 -33 16 -49 0 -9 -9 -12 -9 -12 0 0 7 -8 12 -18
12 -10 0 -23 -5 -30 -12 -9 -9 -12 -9 -12 0 0 16 -37 15 -44 0 -5 -10 -7 -10
-12 0 -3 6 -14 12 -24 12 -10 0 -21 -6 -23 -12 -4 -10 -6 -10 -6 0 -1 6 -12
12 -25 12 -13 0 -27 -6 -29 -12 -4 -10 -6 -10 -6 0 -1 6 -12 12 -25 12 -13 0
-27 -6 -29 -12 -4 -10 -6 -10 -6 0 -2 25 -41 10 -71 -28z"/>
<path d="M3157 1772 l-29 -37 23 -3 c13 -2 25 1 27 7 2 6 8 11 13 11 6 0 7 -4
4 -10 -9 -14 39 -12 53 2 9 9 12 9 12 0 0 -17 39 -15 56 3 17 17 34 20 34 6 0
-5 -8 -12 -17 -14 -10 -3 -3 -5 16 -6 22 -1 39 5 47 17 13 16 13 16 14 0 0
-16 14 -18 155 -18 141 0 155 2 155 18 1 16 1 16 14 0 8 -11 26 -18 42 -17 16
0 23 3 17 6 -21 8 -15 22 7 16 11 -3 20 -9 20 -14 0 -5 12 -8 28 -8 16 1 20 3
10 6 -10 2 -18 9 -18 14 0 14 17 11 34 -6 8 -8 25 -15 38 -14 13 0 17 3 11 6
-7 2 -13 9 -13 15 0 6 11 3 25 -6 29 -19 61 -21 68 -3 4 10 6 10 6 0 1 -13 51
-19 51 -6 0 3 -11 21 -26 40 -20 26 -32 33 -59 33 -18 0 -36 -6 -38 -12 -4
-10 -6 -10 -6 0 -1 6 -12 12 -25 12 -13 0 -27 -6 -29 -12 -4 -10 -6 -10 -6 0
-1 6 -12 12 -25 12 -13 0 -27 -6 -29 -12 -4 -10 -6 -10 -6 0 -1 6 -12 12 -25
12 -13 0 -27 -6 -29 -12 -4 -10 -6 -10 -6 0 -1 6 -13 12 -27 12 -14 0 -23 -4
-19 -10 3 -5 1 -10 -4 -10 -6 0 -11 4 -11 9 0 5 -22 9 -50 9 -29 0 -50 -5 -50
-11 0 -7 -4 -7 -12 1 -16 16 -45 15 -51 0 -4 -10 -6 -10 -6 0 -1 6 -12 12 -25
12 -13 0 -27 -6 -29 -12 -4 -10 -6 -10 -6 0 -1 6 -12 12 -25 12 -13 0 -27 -6
-29 -12 -4 -10 -6 -10 -6 0 -1 6 -12 12 -25 12 -13 0 -27 -6 -29 -12 -4 -10
-6 -10 -6 0 -1 15 -33 16 -49 0 -9 -9 -12 -9 -12 0 0 7 -8 12 -18 12 -10 0
-23 -5 -30 -12 -9 -9 -12 -9 -12 0 0 25 -36 10 -63 -26z"/>
</g>
</svg>
